<?xml version="1.0" standalone="no"?><!DOCTYPE svg PUBLIC "-//W3C//DTD SVG 1.1//EN" "http://www.w3.org/Graphics/SVG/1.1/DTD/svg11.dtd"><svg t="1751218251194" class="icon" viewBox="0 0 1024 1024" version="1.1" xmlns="http://www.w3.org/2000/svg" p-id="6967" xmlns:xlink="http://www.w3.org/1999/xlink" width="200" height="200"><path d="M834.56 552.96v189.44c0 20.48-5.12 35.84-20.48 51.2-76.8 81.92-184.32 122.88-296.96 122.88-112.64 5.12-220.16-40.96-296.96-122.88-10.24-15.36-20.48-30.72-20.48-51.2v-189.44l261.12 102.4c20.48 10.24 35.84 10.24 56.32 10.24 20.48 0 40.96-5.12 56.32-10.24l261.12-102.4z" fill="#3399FF" p-id="6968"></path><path d="M977.92 276.48L547.84 102.4c-10.24-5.12-20.48-5.12-30.72-5.12-10.24 0-20.48 0-25.6 5.12L66.56 276.48C25.6 291.84 10.24 332.8 25.6 373.76c5.12 20.48 20.48 30.72 40.96 40.96l430.08 174.08c15.36 10.24 35.84 10.24 56.32 0l424.96-174.08c35.84-15.36 56.32-56.32 40.96-97.28-10.24-20.48-25.6-35.84-40.96-40.96zM35.84 793.6c-20.48 0-35.84-15.36-35.84-35.84v-240.64c0-20.48 15.36-35.84 35.84-35.84s35.84 15.36 35.84 35.84v240.64c5.12 20.48-15.36 35.84-35.84 35.84z" fill="#3399FF" p-id="6969"></path></svg>